<mxfile host="app.diagrams.net" modified="2024-04-26T04:52:49.031Z" agent="Mozilla/5.0 (Windows NT 10.0; Win64; x64) AppleWebKit/537.36 (KHTML, like Gecko) Chrome/122.0.0.0 Safari/537.36" etag="vYawC7aF9i03XSq7ikVc" version="24.2.3" type="github">
  <diagram name="Page-1" id="2YBvvXClWsGukQMizWep">
    <mxGraphModel dx="1613" dy="434" grid="1" gridSize="10" guides="1" tooltips="1" connect="1" arrows="1" fold="1" page="1" pageScale="1" pageWidth="850" pageHeight="1100" math="0" shadow="0">
      <root>
        <mxCell id="0" />
        <mxCell id="1" parent="0" />
        <mxCell id="aM9ryv3xv72pqoxQDRHE-1" value=":appointmentList" style="shape=umlLifeline;perimeter=lifelinePerimeter;whiteSpace=wrap;html=1;container=0;dropTarget=0;collapsible=0;recursiveResize=0;outlineConnect=0;portConstraint=eastwest;newEdgeStyle={&quot;edgeStyle&quot;:&quot;elbowEdgeStyle&quot;,&quot;elbow&quot;:&quot;vertical&quot;,&quot;curved&quot;:0,&quot;rounded&quot;:0};" parent="1" vertex="1">
          <mxGeometry x="290" y="60" width="100" height="300" as="geometry" />
        </mxCell>
        <mxCell id="aM9ryv3xv72pqoxQDRHE-2" value="" style="html=1;points=[];perimeter=orthogonalPerimeter;outlineConnect=0;targetShapes=umlLifeline;portConstraint=eastwest;newEdgeStyle={&quot;edgeStyle&quot;:&quot;elbowEdgeStyle&quot;,&quot;elbow&quot;:&quot;vertical&quot;,&quot;curved&quot;:0,&quot;rounded&quot;:0};" parent="aM9ryv3xv72pqoxQDRHE-1" vertex="1">
          <mxGeometry x="50" y="80" width="10" height="50" as="geometry" />
        </mxCell>
        <mxCell id="aM9ryv3xv72pqoxQDRHE-5" value=":appointment" style="shape=umlLifeline;perimeter=lifelinePerimeter;whiteSpace=wrap;html=1;container=0;dropTarget=0;collapsible=0;recursiveResize=0;outlineConnect=0;portConstraint=eastwest;newEdgeStyle={&quot;edgeStyle&quot;:&quot;elbowEdgeStyle&quot;,&quot;elbow&quot;:&quot;vertical&quot;,&quot;curved&quot;:0,&quot;rounded&quot;:0};" parent="1" vertex="1">
          <mxGeometry x="450" y="60" width="100" height="300" as="geometry" />
        </mxCell>
        <mxCell id="aM9ryv3xv72pqoxQDRHE-6" value="" style="html=1;points=[];perimeter=orthogonalPerimeter;outlineConnect=0;targetShapes=umlLifeline;portConstraint=eastwest;newEdgeStyle={&quot;edgeStyle&quot;:&quot;elbowEdgeStyle&quot;,&quot;elbow&quot;:&quot;vertical&quot;,&quot;curved&quot;:0,&quot;rounded&quot;:0};" parent="aM9ryv3xv72pqoxQDRHE-5" vertex="1">
          <mxGeometry x="50" y="160" width="10" height="90" as="geometry" />
        </mxCell>
        <mxCell id="J8VDc_DRlblHKEV4FWgW-1" value="UI" style="shape=umlLifeline;perimeter=lifelinePerimeter;whiteSpace=wrap;html=1;container=0;dropTarget=0;collapsible=0;recursiveResize=0;outlineConnect=0;portConstraint=eastwest;newEdgeStyle={&quot;edgeStyle&quot;:&quot;elbowEdgeStyle&quot;,&quot;elbow&quot;:&quot;vertical&quot;,&quot;curved&quot;:0,&quot;rounded&quot;:0};" vertex="1" parent="1">
          <mxGeometry x="110" y="60" width="100" height="300" as="geometry" />
        </mxCell>
        <mxCell id="J8VDc_DRlblHKEV4FWgW-4" value="" style="html=1;points=[];perimeter=orthogonalPerimeter;outlineConnect=0;targetShapes=umlLifeline;portConstraint=eastwest;newEdgeStyle={&quot;edgeStyle&quot;:&quot;elbowEdgeStyle&quot;,&quot;elbow&quot;:&quot;vertical&quot;,&quot;curved&quot;:0,&quot;rounded&quot;:0};" vertex="1" parent="J8VDc_DRlblHKEV4FWgW-1">
          <mxGeometry x="50" y="80" width="10" height="50" as="geometry" />
        </mxCell>
        <mxCell id="J8VDc_DRlblHKEV4FWgW-15" value="" style="html=1;points=[];perimeter=orthogonalPerimeter;outlineConnect=0;targetShapes=umlLifeline;portConstraint=eastwest;newEdgeStyle={&quot;edgeStyle&quot;:&quot;elbowEdgeStyle&quot;,&quot;elbow&quot;:&quot;vertical&quot;,&quot;curved&quot;:0,&quot;rounded&quot;:0};" vertex="1" parent="J8VDc_DRlblHKEV4FWgW-1">
          <mxGeometry x="50" y="160" width="10" height="50" as="geometry" />
        </mxCell>
        <mxCell id="J8VDc_DRlblHKEV4FWgW-41" value="" style="html=1;points=[];perimeter=orthogonalPerimeter;outlineConnect=0;targetShapes=umlLifeline;portConstraint=eastwest;newEdgeStyle={&quot;edgeStyle&quot;:&quot;elbowEdgeStyle&quot;,&quot;elbow&quot;:&quot;vertical&quot;,&quot;curved&quot;:0,&quot;rounded&quot;:0};" vertex="1" parent="J8VDc_DRlblHKEV4FWgW-1">
          <mxGeometry x="50" y="220" width="10" height="50" as="geometry" />
        </mxCell>
        <mxCell id="J8VDc_DRlblHKEV4FWgW-5" style="edgeStyle=elbowEdgeStyle;rounded=0;orthogonalLoop=1;jettySize=auto;html=1;elbow=horizontal;curved=0;" edge="1" parent="1">
          <mxGeometry relative="1" as="geometry">
            <mxPoint x="170" y="150" as="sourcePoint" />
            <mxPoint x="340" y="150" as="targetPoint" />
          </mxGeometry>
        </mxCell>
        <mxCell id="J8VDc_DRlblHKEV4FWgW-6" value="isFull()" style="edgeLabel;html=1;align=center;verticalAlign=middle;resizable=0;points=[];" vertex="1" connectable="0" parent="J8VDc_DRlblHKEV4FWgW-5">
          <mxGeometry x="-0.1033" y="2" relative="1" as="geometry">
            <mxPoint x="4" y="-8" as="offset" />
          </mxGeometry>
        </mxCell>
        <mxCell id="J8VDc_DRlblHKEV4FWgW-7" style="edgeStyle=elbowEdgeStyle;rounded=0;orthogonalLoop=1;jettySize=auto;html=1;elbow=vertical;curved=0;dashed=1;" edge="1" parent="1">
          <mxGeometry relative="1" as="geometry">
            <mxPoint x="170" y="179.99513513513511" as="targetPoint" />
            <mxPoint x="340" y="179.99513513513511" as="sourcePoint" />
          </mxGeometry>
        </mxCell>
        <mxCell id="J8VDc_DRlblHKEV4FWgW-12" value="False" style="edgeLabel;html=1;align=center;verticalAlign=middle;resizable=0;points=[];" vertex="1" connectable="0" parent="J8VDc_DRlblHKEV4FWgW-7">
          <mxGeometry x="-0.3216" y="1" relative="1" as="geometry">
            <mxPoint x="-22" y="-11" as="offset" />
          </mxGeometry>
        </mxCell>
        <mxCell id="J8VDc_DRlblHKEV4FWgW-17" style="edgeStyle=elbowEdgeStyle;rounded=0;orthogonalLoop=1;jettySize=auto;html=1;elbow=vertical;curved=0;" edge="1" parent="1" target="aM9ryv3xv72pqoxQDRHE-5">
          <mxGeometry relative="1" as="geometry">
            <mxPoint x="170" y="230.00096774193548" as="sourcePoint" />
            <mxPoint x="339.4999999999999" y="230.00096774193548" as="targetPoint" />
          </mxGeometry>
        </mxCell>
        <mxCell id="J8VDc_DRlblHKEV4FWgW-18" value="isTaken()" style="edgeLabel;html=1;align=center;verticalAlign=middle;resizable=0;points=[];" vertex="1" connectable="0" parent="J8VDc_DRlblHKEV4FWgW-17">
          <mxGeometry x="0.1697" y="-1" relative="1" as="geometry">
            <mxPoint x="7" y="-11" as="offset" />
          </mxGeometry>
        </mxCell>
        <mxCell id="J8VDc_DRlblHKEV4FWgW-21" style="edgeStyle=elbowEdgeStyle;rounded=0;orthogonalLoop=1;jettySize=auto;html=1;elbow=vertical;curved=0;dashed=1;" edge="1" parent="1" target="J8VDc_DRlblHKEV4FWgW-15">
          <mxGeometry relative="1" as="geometry">
            <mxPoint x="500" y="260.0009677419355" as="sourcePoint" />
            <mxPoint x="350" y="260.0009677419355" as="targetPoint" />
          </mxGeometry>
        </mxCell>
        <mxCell id="J8VDc_DRlblHKEV4FWgW-22" value="False" style="edgeLabel;html=1;align=center;verticalAlign=middle;resizable=0;points=[];" vertex="1" connectable="0" parent="J8VDc_DRlblHKEV4FWgW-21">
          <mxGeometry x="-0.1411" y="-3" relative="1" as="geometry">
            <mxPoint x="12" y="-7" as="offset" />
          </mxGeometry>
        </mxCell>
        <mxCell id="J8VDc_DRlblHKEV4FWgW-26" value="User" style="shape=umlLifeline;perimeter=lifelinePerimeter;whiteSpace=wrap;html=1;container=0;dropTarget=0;collapsible=0;recursiveResize=0;outlineConnect=0;portConstraint=eastwest;newEdgeStyle={&quot;edgeStyle&quot;:&quot;elbowEdgeStyle&quot;,&quot;elbow&quot;:&quot;vertical&quot;,&quot;curved&quot;:0,&quot;rounded&quot;:0};" vertex="1" parent="1">
          <mxGeometry x="-40" y="60" width="100" height="300" as="geometry" />
        </mxCell>
        <mxCell id="J8VDc_DRlblHKEV4FWgW-27" value="" style="html=1;points=[];perimeter=orthogonalPerimeter;outlineConnect=0;targetShapes=umlLifeline;portConstraint=eastwest;newEdgeStyle={&quot;edgeStyle&quot;:&quot;elbowEdgeStyle&quot;,&quot;elbow&quot;:&quot;vertical&quot;,&quot;curved&quot;:0,&quot;rounded&quot;:0};" vertex="1" parent="J8VDc_DRlblHKEV4FWgW-26">
          <mxGeometry x="50" y="80" width="10" height="50" as="geometry" />
        </mxCell>
        <mxCell id="J8VDc_DRlblHKEV4FWgW-28" value="" style="html=1;points=[];perimeter=orthogonalPerimeter;outlineConnect=0;targetShapes=umlLifeline;portConstraint=eastwest;newEdgeStyle={&quot;edgeStyle&quot;:&quot;elbowEdgeStyle&quot;,&quot;elbow&quot;:&quot;vertical&quot;,&quot;curved&quot;:0,&quot;rounded&quot;:0};" vertex="1" parent="J8VDc_DRlblHKEV4FWgW-26">
          <mxGeometry x="50" y="160" width="10" height="50" as="geometry" />
        </mxCell>
        <mxCell id="J8VDc_DRlblHKEV4FWgW-29" style="edgeStyle=elbowEdgeStyle;rounded=0;orthogonalLoop=1;jettySize=auto;html=1;elbow=vertical;curved=0;" edge="1" parent="1">
          <mxGeometry relative="1" as="geometry">
            <mxPoint x="20" y="150.0022580645161" as="sourcePoint" />
            <mxPoint x="160" y="150.0022580645161" as="targetPoint" />
          </mxGeometry>
        </mxCell>
        <mxCell id="J8VDc_DRlblHKEV4FWgW-30" value="Choose a date" style="edgeLabel;html=1;align=center;verticalAlign=middle;resizable=0;points=[];" vertex="1" connectable="0" parent="J8VDc_DRlblHKEV4FWgW-29">
          <mxGeometry x="0.3621" y="-1" relative="1" as="geometry">
            <mxPoint x="-25" y="-11" as="offset" />
          </mxGeometry>
        </mxCell>
        <mxCell id="J8VDc_DRlblHKEV4FWgW-31" style="edgeStyle=elbowEdgeStyle;rounded=0;orthogonalLoop=1;jettySize=auto;html=1;elbow=vertical;curved=0;" edge="1" parent="1">
          <mxGeometry relative="1" as="geometry">
            <mxPoint x="20" y="230.0022580645161" as="sourcePoint" />
            <mxPoint x="159.5" y="230.0022580645161" as="targetPoint" />
          </mxGeometry>
        </mxCell>
        <mxCell id="J8VDc_DRlblHKEV4FWgW-32" value="Choose a timezone" style="edgeLabel;html=1;align=center;verticalAlign=middle;resizable=0;points=[];" vertex="1" connectable="0" parent="J8VDc_DRlblHKEV4FWgW-31">
          <mxGeometry x="0.4039" y="2" relative="1" as="geometry">
            <mxPoint x="-28" y="-8" as="offset" />
          </mxGeometry>
        </mxCell>
        <mxCell id="J8VDc_DRlblHKEV4FWgW-33" style="edgeStyle=elbowEdgeStyle;rounded=0;orthogonalLoop=1;jettySize=auto;html=1;elbow=vertical;curved=0;dashed=1;" edge="1" parent="1">
          <mxGeometry relative="1" as="geometry">
            <mxPoint x="160" y="180.0322580645161" as="sourcePoint" />
            <mxPoint x="20" y="180" as="targetPoint" />
          </mxGeometry>
        </mxCell>
        <mxCell id="J8VDc_DRlblHKEV4FWgW-34" value="Show choose time UI" style="edgeLabel;html=1;align=center;verticalAlign=middle;resizable=0;points=[];" vertex="1" connectable="0" parent="J8VDc_DRlblHKEV4FWgW-33">
          <mxGeometry x="-0.4357" y="1" relative="1" as="geometry">
            <mxPoint x="-31" y="-11" as="offset" />
          </mxGeometry>
        </mxCell>
        <mxCell id="J8VDc_DRlblHKEV4FWgW-39" style="edgeStyle=elbowEdgeStyle;rounded=0;orthogonalLoop=1;jettySize=auto;html=1;elbow=vertical;curved=0;dashed=1;" edge="1" parent="1">
          <mxGeometry relative="1" as="geometry">
            <mxPoint x="160" y="260.0022580645161" as="sourcePoint" />
            <mxPoint x="20" y="260.0022580645161" as="targetPoint" />
          </mxGeometry>
        </mxCell>
        <mxCell id="J8VDc_DRlblHKEV4FWgW-40" value="Show add ParticipantUI" style="edgeLabel;html=1;align=center;verticalAlign=middle;resizable=0;points=[];" vertex="1" connectable="0" parent="J8VDc_DRlblHKEV4FWgW-39">
          <mxGeometry x="-0.2429" relative="1" as="geometry">
            <mxPoint x="-17" y="-10" as="offset" />
          </mxGeometry>
        </mxCell>
        <mxCell id="J8VDc_DRlblHKEV4FWgW-42" style="edgeStyle=elbowEdgeStyle;rounded=0;orthogonalLoop=1;jettySize=auto;html=1;elbow=vertical;curved=0;dashed=1;" edge="1" parent="1" source="aM9ryv3xv72pqoxQDRHE-6" target="J8VDc_DRlblHKEV4FWgW-41">
          <mxGeometry relative="1" as="geometry" />
        </mxCell>
        <mxCell id="J8VDc_DRlblHKEV4FWgW-43" value="True" style="edgeLabel;html=1;align=center;verticalAlign=middle;resizable=0;points=[];" vertex="1" connectable="0" parent="J8VDc_DRlblHKEV4FWgW-42">
          <mxGeometry x="-0.3271" y="-2" relative="1" as="geometry">
            <mxPoint x="-19" y="-13" as="offset" />
          </mxGeometry>
        </mxCell>
      </root>
    </mxGraphModel>
  </diagram>
</mxfile>
